<?xml version="1.0" encoding="utf-8"?>
<!-- Generator: Adobe Illustrator 24.1.1, SVG Export Plug-In . SVG Version: 6.00 Build 0)  -->
<svg version="1.1" id="Layer_1" xmlns="http://www.w3.org/2000/svg" xmlns:xlink="http://www.w3.org/1999/xlink" x="0px" y="0px"
	 viewBox="0 0 2500 2500" style="enable-background:new 0 0 2500 2500;" xml:space="preserve">
<style type="text/css">
	.st0{fill-rule:evenodd;clip-rule:evenodd;}
	.st1{fill-rule:evenodd;clip-rule:evenodd;fill:#2B9969;}
</style>
<path class="st0" d="M645.6,1487.7H519.2l-38.7-93.3H269.8l-35.2,93.3H110.3l190-471.1h136.1L645.6,1487.7z M370,1129.2l-69.1,183
	H446L370,1129.2L370,1129.2z M1104.8,1016.6h102.2v471.1h-117.4v-294.3l-127.1,147.8h-18l-127.1-147.8v294.3H700v-471.1h102.2
	l151.3,174.8L1104.8,1016.6L1104.8,1016.6z M1504.6,1016.6c172,0,260.4,107.1,260.4,236.2c0,135.4-85.7,234.9-273.5,234.9h-194.8
	v-471.1H1504.6L1504.6,1016.6z M1414.2,1401.4h76.7c118.1,0,153.4-80.2,153.4-149.2c0-80.8-43.5-149.2-154.7-149.2h-75.3
	L1414.2,1401.4L1414.2,1401.4L1414.2,1401.4z"/>
<path class="st1" d="M2239.6,1126.6h-241.4l-146.7-147.4l538.2-0.7v538.9l-150.1-150.8V1126.6z M1998.2,1371.4l0.7-217.7
	l-152.8,152.8v215h221.1l150.1-150.1H1998.2z"/>
</svg>
